<svg width="75" height="74" viewBox="0 0 75 74" fill="none" xmlns="http://www.w3.org/2000/svg">
<path fill-rule="evenodd" clip-rule="evenodd" d="M74.1667 36.9999C74.1667 46.7245 70.3036 56.0508 63.4273 62.9271C56.551 69.8034 47.2246 73.6665 37.5 73.6665C27.7754 73.6665 18.4491 69.8034 11.5728 62.9271C4.69646 56.0508 0.833374 46.7245 0.833374 36.9999C0.833374 27.2753 4.69646 17.9489 11.5728 11.0726C18.4491 4.19628 27.7754 0.333191 37.5 0.333191C47.2246 0.333191 56.551 4.19628 63.4273 11.0726C70.3036 17.9489 74.1667 27.2753 74.1667 36.9999ZM23.3 27.9999C23.5672 26.7248 24.202 25.5559 25.1262 24.6377C26.0503 23.7195 27.2233 23.0921 28.5 22.8332L52.5667 17.9999C53.1067 17.8895 53.6656 17.9147 54.1934 18.0733C54.7213 18.2319 55.2015 18.5189 55.5913 18.9086C55.981 19.2984 56.268 19.7786 56.4266 20.3065C56.5852 20.8343 56.6104 21.3932 56.5 21.9332L51.6667 45.9999C51.409 47.2916 50.7744 48.478 49.843 49.4094C48.9116 50.3408 47.7251 50.9755 46.4334 51.2332L22.3667 56.0665C21.8267 56.1769 21.2678 56.1517 20.74 55.9931C20.2122 55.8345 19.7319 55.5475 19.3422 55.1577C18.9524 54.768 18.6654 54.2878 18.5068 53.7599C18.3482 53.2321 18.323 52.6732 18.4334 52.1332L23.3 27.9999Z" fill="#ABABAB"/>
</svg>
